<svg xmlns:dc="http://purl.org/dc/elements/1.1/" xmlns:cc="http://creativecommons.org/ns#" xmlns:rdf="http://www.w3.org/1999/02/22-rdf-syntax-ns#" xmlns:svg="http://www.w3.org/2000/svg" xmlns="http://www.w3.org/2000/svg" viewBox="0 0 64 64" fill="none"><metadata><rdf:RDF><cc:Work><dc:format>image/svg+xml</dc:format><dc:type rdf:resource="http://purl.org/dc/dcmitype/StillImage"/><dc:title>Miniavs - Free Avatar Creator</dc:title><dc:creator><cc:Agent><dc:title>Webpixels</dc:title></cc:Agent></dc:creator><dc:source>https://www.figma.com/community/file/923211396597067458</dc:source><cc:license rdf:resource="https://creativecommons.org/licenses/by/4.0/"/></cc:Work><cc:License rdf:about="https://creativecommons.org/licenses/by/4.0/"><cc:permits rdf:resource="https://creativecommons.org/ns#Reproduction"/><cc:permits rdf:resource="https://creativecommons.org/ns#Distribution"/><cc:permits rdf:resource="https://creativecommons.org/ns#DerivativeWorks"/><cc:requires rdf:resource="https://creativecommons.org/ns#Notice"/><cc:requires rdf:resource="https://creativecommons.org/ns#Attribution"/></cc:License></rdf:RDF></metadata><mask id="avatarsRadiusMask"><rect width="64" height="64" rx="0" ry="0" x="0" y="0" fill="#fff"/></mask><g mask="url(#avatarsRadiusMask)"><g><path d="M45.887 36.1c0 8.5-1.257 18.859-10.887 19.82v9.95S31.357 68 26.5 68 18 64.523 18 64.523V42a5 5 0 0 1-1.303-9.829C15.36 22.643 17.51 13 32.002 13c14.587 0 14.235 11.08 13.957 19.815-.037 1.145-.072 2.25-.072 3.284Z" fill="rgba(131, 96, 85, 1)"/><path d="M35 55.92c-.478.048-.978.072-1.498.072-8.883 0-13.9-7.153-15.502-14.605v23.135s3.643 3.477 8.5 3.477 8.5-2.13 8.5-2.13V55.92Z" fill="#000" fill-opacity=".07"/><path d="M34.629 55.952c-.364.026-.74.04-1.128.04-6.53 0-10.97-3.866-13.501-8.875v.424l.001.695c0 5.385 2.614 9.75 8.276 9.75.484 0 .932.004 1.348.007 3.346.028 4.59.038 5.004-2.041ZM16.697 32.172A5.002 5.002 0 0 0 18 42c.047 0 .093 0 .14-.002a25.38 25.38 0 0 1-.71-5.898 46.698 46.698 0 0 1-.733-3.928Z" fill="#000" fill-opacity=".07"/><rect x="36" y="41" width="3" height="2" rx="1" fill="#000" fill-opacity=".07"/></g><g><rect x="7" y="60" width="40" height="23" rx="9" fill="rgba(255, 77, 216, 1)"/></g><g><path d="M29.697 26.203c5.611 1.863 13.389 4.445 21.535-3.701 4-4-14-21-28.5-11.5-11.333 1.679-10.685 8.47-10.185 13.71.095 1.002.185 1.948.185 2.79 0 .533.07.931.2 1.218a26.48 26.48 0 0 0-.2 3.282 4 4 0 1 0 8 0A4 4 0 0 0 24.606 27l.126.002c1.224 0 2.32-.55 3.053-1.416.605.183 1.243.395 1.912.617Z" fill="rgba(27, 11, 71, 1)"/></g><g transform="translate(1)"><path d="M27.93 46a1 1 0 0 1 1-1h9.142a1 1 0 0 1 1 1 5 5 0 0 1-5 5H32.93a5 5 0 0 1-5-5Z" fill="#66253C"/><path d="M35.756 50.708a4.992 4.992 0 0 1-1.684.29H32.93a5 5 0 0 1-4.996-4.8c.764-.285 1.898-.253 3.017-.22.356.01.71.02 1.05.02 2.21 0 4 1.568 4 3.5 0 .426-.087.833-.245 1.21Z" fill="#B03E67"/><path d="M29 45h10v1a1 1 0 0 1-1 1h-8a1 1 0 0 1-1-1v-1Z" fill="#fff"/><path d="M31 45.3a.3.3 0 0 1 .3-.3h1.4a.3.3 0 0 1 .3.3v2.4a.3.3 0 0 1-.3.3h-1.4a.3.3 0 0 1-.3-.3v-2.4Z" fill="#B03E67"/></g><g transform="translate(0 -1)"><g><g fill="#FF859B"><rect x="24" y="39" width="5" height="3" rx="1.5"/><rect x="43" y="39" width="4" height="3" rx="1.5"/></g></g><g fill="#1B0B47"><path d="M30 37.5a1.5 1.5 0 0 1 3 0v1.227c0 .15-.122.273-.273.273h-2.454a.273.273 0 0 1-.273-.273V37.5ZM40 37.5a1.5 1.5 0 0 1 3 0v1.227c0 .15-.122.273-.273.273h-2.454a.273.273 0 0 1-.273-.273V37.5Z"/></g></g><g/><g/></g></svg>